<?xml version="1.0" encoding="utf-8"?>
<!-- Generator: Adobe Illustrator 22.1.0, SVG Export Plug-In . SVG Version: 6.00 Build 0)  -->
<svg version="1.1" id="Calque_1" xmlns="http://www.w3.org/2000/svg" xmlns:xlink="http://www.w3.org/1999/xlink" x="0px" y="0px"
	 viewBox="0 0 139.4 151" style="enable-background:new 0 0 139.4 151;" xml:space="preserve">
<style type="text/css">
	.st0{fill:#F29413;}
	.st1{fill:#005B9A;}
</style>
<g>
	<path id="logo-t-bas_1_" class="st0" d="M73.3,149.8H57.1V13.3H2.6L4,9.2c1.1-3.9,2.2-6.1,3-6.9s2.5-1.4,4.7-1.4h111.7l-3.3,8
		c-1.4,3.9-0.7,2.2-1.3,3.5c-0.8,0.8-2.9,0.9-5.1,0.9H79.9c-1.7,0-3.3,1.1-4.4,3.3s-1.7,5-1.7,8v125.2L73.3,149.8L73.3,149.8z"/>
	<path id="logo-h" class="st1" d="M138.2,19.7v130.4h-15.4l0.3-66.9h-38l2.8-6.1c1.1-2.8,1.9-4.7,2.8-5.2c0.6-0.6,1.9-1.1,4.1-1.1
		h30V19.7H138.2z"/>
	<polygon id="logo-t-bas" points="56.8,13.3 56.8,149.8 73.8,149.8 73.8,23.8 	"/>
</g>
</svg>
